<svg xmlns="http://www.w3.org/2000/svg" width="160" height="42" viewBox="0 0 160 42">
  <g fill="#FFF" fill-rule="evenodd">
    <polygon points="22 2 30 2 30 10 22 10" transform="rotate(45 26 6)"/>
    <polygon points="135 32 143 32 143 40 135 40" transform="rotate(45 139 36)"/>
    <polygon points="8 9 16 9 16 34 8 34" transform="rotate(45 12 21.5)"/>
    <polygon points="22 8 30 8 30 37 22 37" transform="scale(-1 1) rotate(45 0 -40.27)"/>
    <polygon points="37 8 45 8 45 37 37 37" transform="rotate(45 41 22.5)"/>
    <polygon points="52 8 60 8 60 37 52 37" transform="scale(-1 1) rotate(45 0 -112.696)"/>
    <polygon points="67 8 75 8 75 37 67 37" transform="rotate(45 71 22.5)"/>
    <polygon points="82 8 90 8 90 37 82 37" transform="scale(-1 1) rotate(45 0 -185.122)"/>
    <polygon points="97 8 105 8 105 37 97 37" transform="rotate(45 101 22.5)"/>
    <polygon points="112 8 120 8 120 37 112 37" transform="scale(-1 1) rotate(45 0 -257.549)"/>
    <polygon points="127 8 135 8 135 37 127 37" transform="rotate(45 131 22.5)"/>
    <polygon points="142 8 150 8 150 37 142 37" transform="scale(-1 1) rotate(45 0 -329.975)"/>
  </g>
</svg>
